<svg xmlns="http://www.w3.org/2000/svg" xmlns:xlink="http://www.w3.org/1999/xlink" viewBox="0 0 640 961" xmlns:v="https://vecta.io/nano"><defs><path id="A" d="M489.23 315.38c0 162.39-107.93 294.24-240.86 294.24C115.43 609.62 7.5 477.77 7.5 315.38S115.43 21.15 248.37 21.15c132.93 0 240.86 131.84 240.86 294.23z"/><path id="B" d="M633.22 315.38c0 162.39-107.93 294.24-240.86 294.24-132.94 0-240.87-131.85-240.87-294.24S259.42 21.15 392.36 21.15c132.93 0 240.86 131.84 240.86 294.23z"/><path id="C" d="M501.97 313.46c0 164.51-81.11 298.08-181.01 298.08S139.95 477.97 139.95 313.46 221.06 15.38 320.96 15.38s181.01 133.57 181.01 298.08z"/><path id="D" d="M127.21 0h98.56v61.54h-98.56V0z"/><path id="E" d="M418.08 0h94.71v61.54h-94.71V0z"/><path id="F" d="M225.77 0h192.31v61.54H225.77V0z"/><path id="G" d="M400.77 82.02a7.69 7.69 0 0 1 7.69 7.69h0a7.69 7.69 0 0 1-7.69 7.69H244.04a7.69 7.69 0 0 1-7.69-7.69h0a7.69 7.69 0 0 1 7.69-7.69h156.73z"/><path id="H" d="M425.19 127.6a7.69 7.69 0 0 1 7.69 7.69h0a7.69 7.69 0 0 1-7.69 7.69H209.81a7.69 7.69 0 0 1-7.69-7.69h0a7.69 7.69 0 0 1 7.69-7.69h215.38z"/><path id="I" d="M453.65 177.98c4.25 0 7.7 3.44 7.7 7.69h0c0 4.25-3.45 7.7-7.7 7.7H185.38c-4.24 0-7.69-3.45-7.69-7.7h0c0-4.25 3.45-7.69 7.69-7.69h268.27z"/><path id="J" d="M466.63 229.33c4.25 0 7.7 3.44 7.7 7.69h0c0 4.25-3.45 7.69-7.7 7.69H173.37c-4.25 0-7.7-3.44-7.7-7.69h0c0-4.25 3.45-7.69 7.7-7.69h293.26z"/><path id="K" d="M472.79 280.67c4.25 0 7.69 3.45 7.69 7.7h0c0 4.24-3.44 7.69-7.69 7.69H167.02c-4.25 0-7.69-3.45-7.69-7.69h0c0-4.25 3.44-7.7 7.69-7.7h305.77z"/><path id="L" d="M466.63 333.56c4.25 0 7.7 3.44 7.7 7.69h0c0 4.25-3.45 7.69-7.7 7.69H173.37c-4.25 0-7.7-3.44-7.7-7.69h0c0-4.25 3.45-7.69 7.7-7.69h293.26z"/><path id="M" d="M453.65 391.83c4.25 0 7.7 3.44 7.7 7.69h0c0 4.25-3.45 7.69-7.7 7.69H185.38c-4.24 0-7.69-3.44-7.69-7.69h0c0-4.25 3.45-7.69 7.69-7.69h268.27z"/><path id="N" d="M434.81 448.17c4.25 0 7.69 3.45 7.69 7.7h0c0 4.24-3.44 7.69-7.69 7.69H205.96c-4.25 0-7.69-3.45-7.69-7.69h0c0-4.25 3.44-7.7 7.69-7.7h228.85z"/><path id="O" d="M410.38 498.75c4.25 0 7.7 3.44 7.7 7.69h0c0 4.25-3.45 7.69-7.7 7.69H233.46a7.69 7.69 0 0 1-7.69-7.69h0a7.69 7.69 0 0 1 7.69-7.69h176.92z"/><path id="P" d="M127.21 568.65h101.37v42.89H127.21v-42.89z"/><path id="Q" d="M227.77 568.65h185.58v42.89H227.77v-42.89z"/><path id="R" d="M413.35 568.65h101.36v42.89H413.35v-42.89z"/><path id="S" d="M388.03 538.56a6.49 6.49 0 0 1 6.49 6.49v2.4a6.49 6.49 0 0 1-6.49 6.49H255.82c-3.59 0-6.49-2.9-6.49-6.49v-2.4c0-3.59 2.9-6.49 6.49-6.49h132.21z"/><path id="T" d="M170.34 82.12a7.27 7.27 0 0 1 6.06 8.3c-.25 1.61.12-.77-.13.83a7.28 7.28 0 0 1-8.31 6.07l-38.6-6.04a7.26 7.26 0 0 1-6.06-8.3c.25-1.61-.12.77.13-.83.62-3.97 4.34-6.69 8.3-6.07l38.61 6.04z"/><path id="U" d="M147.16 127.67c3.98.56 6.76 4.23 6.2 8.21-.22 1.61.11-.78-.12.83-.55 3.98-4.22 6.75-8.2 6.2l-52.37-7.3c-3.98-.56-6.76-4.23-6.2-8.21.22-1.61-.11.78.11-.83a7.28 7.28 0 0 1 8.21-6.2l52.37 7.3z"/><path id="V" d="M112.67 283.86a7.26 7.26 0 0 1 7.24 7.3c0 1.62.01-.78 0 .84a7.26 7.26 0 0 1-7.3 7.24l-75.95-.3c-4.02-.01-7.26-3.28-7.25-7.3.01-1.62 0 .79.01-.84.01-4.01 3.28-7.26 7.3-7.24l75.95.3z"/><path id="W" d="M116.3 229.34a7.27 7.27 0 0 1 6.9 7.62c-.08 1.62.04-.78-.04.84-.2 4.01-3.61 7.1-7.63 6.9l-67.27-3.33a7.28 7.28 0 0 1-6.91-7.63c.08-1.62-.04.78.04-.84a7.28 7.28 0 0 1 7.63-6.9l67.28 3.34z"/><path id="X" d="M128.42 175.3c3.99.39 6.91 3.95 6.52 7.95-.16 1.61.08-.78-.08.83-.4 4-3.96 6.92-7.95 6.53l-60.25-5.95c-4-.39-6.92-3.95-6.53-7.95.16-1.61-.07.78.09-.83.39-4 3.95-6.92 7.95-6.53l60.25 5.95z"/><path id="Y" d="M512.56 88.65c3.97-.62 6.69-4.34 6.07-8.3-.25-1.61.12.77-.13-.83a7.28 7.28 0 0 0-8.31-6.07l-38.61 6.03a7.28 7.28 0 0 0-6.06 8.31c.25 1.61-.12-.77.13.83.62 3.97 4.34 6.68 8.31 6.06l38.6-6.03z"/><path id="Z" d="M545.96 131.56c3.98-.55 6.76-4.23 6.2-8.2-.22-1.61.11.77-.12-.83a7.26 7.26 0 0 0-8.2-6.2l-52.37 7.3a7.27 7.27 0 0 0-6.2 8.21c.22 1.6-.11-.78.11.83a7.28 7.28 0 0 0 8.21 6.2l52.37-7.31z"/><path id="a" d="M515.12 175.3a7.26 7.26 0 0 0-6.52 7.95c.15 1.61-.08-.78.08.83.39 4 3.95 6.92 7.95 6.53l60.25-5.95a7.26 7.26 0 0 0 6.52-7.95c-.16-1.61.08.78-.08-.83-.39-4-3.95-6.92-7.95-6.53l-60.25 5.95z"/><path id="b" d="M528.45 229.34c-4.01.2-7.1 3.61-6.91 7.62.08 1.62-.03-.78.05.84a7.27 7.27 0 0 0 7.62 6.9l67.28-3.33a7.28 7.28 0 0 0 6.9-7.63c-.08-1.62.04.78-.04-.84a7.27 7.27 0 0 0-7.62-6.9l-67.28 3.34z"/><path id="c" d="M611.13 283.86c4.02.01 7.26 3.28 7.25 7.3-.01 1.62 0-.78-.01.84a7.26 7.26 0 0 1-7.3 7.24l-75.95-.3a7.26 7.26 0 0 1-7.24-7.3c0-1.62-.01.79 0-.84.01-4.01 3.28-7.26 7.3-7.24l75.95.3z"/><path id="d" d="M108.68 348.93a7.27 7.27 0 0 0 6.91-7.62c-.08-1.62.04.78-.04-.84a7.28 7.28 0 0 0-7.63-6.9l-67.28 3.33c-4.01.2-7.1 3.61-6.9 7.63.08 1.62-.04-.79.04.83.2 4.02 3.61 7.11 7.63 6.91l67.27-3.34z"/><path id="e" d="M120.65 411.56c4-.39 6.92-3.95 6.53-7.95-.16-1.62.07.78-.09-.84-.39-3.99-3.95-6.91-7.95-6.52l-67.03 6.61c-4 .4-6.92 3.96-6.53 7.95.16 1.62-.07-.78.09.84a7.26 7.26 0 0 0 7.95 6.52l67.03-6.61z"/><path id="f" d="M133.68 466.82a7.27 7.27 0 0 0 6.2-8.21c-.22-1.6.11.78-.11-.83a7.29 7.29 0 0 0-8.21-6.2l-62.46 8.71a7.28 7.28 0 0 0-6.2 8.21c.22 1.61-.11-.77.12.83.55 3.98 4.23 6.76 8.2 6.2l62.46-8.71z"/><path id="g" d="M150.18 517.96a7.27 7.27 0 0 0 6.06-8.3c-.25-1.61.12.77-.13-.83a7.28 7.28 0 0 0-8.31-6.07l-43.44 6.79c-3.97.62-6.68 4.34-6.06 8.31.25 1.6-.12-.78.13.83a7.27 7.27 0 0 0 8.3 6.06l43.45-6.79z"/><path id="h" d="M167.6 553.84c3.47-.55 5.84-3.8 5.3-7.26l-.42-2.65c-.54-3.47-3.79-5.84-7.26-5.3l-24.87 3.89c-3.47.54-5.84 3.79-5.3 7.26l.42 2.64c.54 3.47 3.79 5.84 7.26 5.3l24.87-3.88z"/><path id="i" d="M533.83 348.93a7.27 7.27 0 0 1-6.91-7.62c.08-1.62-.04.78.04-.84a7.28 7.28 0 0 1 7.63-6.9l67.28 3.33c4.01.2 7.1 3.61 6.9 7.63-.08 1.62.04-.79-.04.83-.2 4.02-3.61 7.11-7.63 6.91l-67.27-3.34z"/><path id="j" d="M525.27 411.56c-3.99-.39-6.91-3.95-6.52-7.95.16-1.62-.08.78.08-.84.4-3.99 3.96-6.91 7.95-6.52l67.04 6.61c4 .4 6.92 3.96 6.52 7.95-.16 1.62.08-.78-.08.84a7.26 7.26 0 0 1-7.95 6.52l-67.04-6.61z"/><path id="k" d="M512.58 466.82a7.27 7.27 0 0 1-6.19-8.21c.22-1.6-.11.78.11-.83a7.29 7.29 0 0 1 8.21-6.2l62.46 8.71a7.28 7.28 0 0 1 6.2 8.21c-.23 1.61.11-.77-.12.83a7.27 7.27 0 0 1-8.21 6.2l-62.46-8.71z"/><path id="l" d="M489.88 517.96a7.27 7.27 0 0 1-6.06-8.3c.25-1.61-.13.77.13-.83.62-3.97 4.34-6.69 8.3-6.07l43.45 6.79c3.97.62 6.68 4.34 6.06 8.31-.25 1.6.12-.78-.13.83-.62 3.97-4.34 6.68-8.31 6.06l-43.44-6.79z"/><path id="m" d="M471.57 553.84a6.36 6.36 0 0 1-5.29-7.26l.41-2.65c.54-3.47 3.79-5.84 7.26-5.3l24.87 3.89c3.47.54 5.84 3.79 5.3 7.26l-.41 2.64c-.55 3.47-3.8 5.84-7.26 5.3l-24.88-3.88z"/><path id="n" d="m159.18 599.04c5.52 0 10 4.48 10 10v5c0 5.52-4.48 10-10 10h-21.97c-5.52 0-10-4.48-10-10v-5c0-5.52 4.48-10 10-10h21.97z"/><path id="o" d="M504.29 599.95a10 10 0 0 1 10 10v5a10 10 0 0 1-10 10h-21.96a10 10 0 0 1-10-10v-5a10 10 0 0 1 10-10h21.96z"/><path id="p" d="M240.19 584.56a9.14 9.14 0 0 1 9.14 9.14v22.11a9.14 9.14 0 0 1-9.14 9.14h-87.02c-5.04 0-9.13-4.09-9.13-9.14V593.7c0-5.05 4.09-9.14 9.13-9.14h87.02z"/><path id="q" d="M490.67 584.56a9.14 9.14 0 0 1 9.14 9.14v22.11a9.14 9.14 0 0 1-9.14 9.14h-87.02c-5.04 0-9.13-4.09-9.13-9.14V593.7c0-5.05 4.09-9.14 9.13-9.14h87.02z"/><path id="r" d="M236.23 586.01a8.65 8.65 0 0 1 8.65 8.65v359.13a8.65 8.65 0 0 1-8.65 8.65c-1.73 0 1.73 0 0 0a8.65 8.65 0 0 1-8.65-8.65V594.66a8.65 8.65 0 0 1 8.65-8.65c1.73 0-1.73 0 0 0z"/><path id="s" d="M227.77 584.56h185.58v40.39H227.77v-40.39z"/><path id="t" d="M152.69 584.56c4.78 0 8.66 3.88 8.66 8.66v359.13c0 4.78-3.88 8.65-8.66 8.65-1.73 0 1.73 0 0 0a8.65 8.65 0 0 1-8.65-8.65V593.22c0-4.78 3.87-8.66 8.65-8.66 1.73 0-1.73 0 0 0z"/><path id="u" d="M196.68 586.01c4.78 0 8.66 3.87 8.66 8.65v359.13c0 4.78-3.88 8.65-8.66 8.65-1.73 0 1.73 0 0 0a8.65 8.65 0 0 1-8.65-8.65V594.66a8.65 8.65 0 0 1 8.65-8.65c1.73 0-1.73 0 0 0z"/><path id="v" d="M404.69 586.01c4.78 0 8.66 3.87 8.66 8.65v359.13c0 4.78-3.88 8.65-8.66 8.65-1.73 0 1.73 0 0 0a8.65 8.65 0 0 1-8.65-8.65V594.66a8.65 8.65 0 0 1 8.65-8.65c1.73 0-1.73 0 0 0z"/><path id="w" d="M347.58 586.01a8.65 8.65 0 0 1 8.65 8.65v359.13a8.65 8.65 0 0 1-8.65 8.65c-1.73 0 1.73 0 0 0-4.78 0-8.66-3.87-8.66-8.65V594.66c0-4.78 3.88-8.65 8.66-8.65 1.73 0-1.73 0 0 0z"/><path id="x" d="M294.12 586.01c4.77 0 8.65 3.87 8.65 8.65v359.13c0 4.78-3.88 8.65-8.65 8.65-1.74 0 1.73 0 0 0-4.78 0-8.66-3.87-8.66-8.65V594.66c0-4.78 3.88-8.65 8.66-8.65 1.73 0-1.74 0 0 0z"/><path id="y" d="M492.38 584.56c4.78 0 8.66 3.88 8.66 8.66v359.13c0 4.78-3.88 8.65-8.66 8.65-1.73 0 1.73 0 0 0a8.65 8.65 0 0 1-8.65-8.65V593.22c0-4.78 3.87-8.66 8.65-8.66 1.73 0-1.73 0 0 0z"/><path id="z" d="M447.16 584.56c4.78 0 8.66 3.88 8.66 8.66v359.13c0 4.78-3.88 8.65-8.66 8.65-1.73 0 1.73 0 0 0a8.65 8.65 0 0 1-8.65-8.65V593.22c0-4.78 3.87-8.66 8.65-8.66 1.73 0-1.73 0 0 0z"/><path id="AA" d="m167.1 30.77c0 6.26-5.17 11.35-11.53 11.35-6.37 0-11.53-5.09-11.53-11.35s5.16-11.35 11.53-11.35c6.36 0 11.53 5.09 11.53 11.35z"/><path id="AB" d="m208.21 30.77c0 6.26-5.16 11.35-11.53 11.35-6.36 0-11.53-5.09-11.53-11.35s5.17-11.35 11.53-11.35c6.37 0 11.53 5.09 11.53 11.35z"/><path id="AC" d="m275.56 30.77c0 6.26-5.17 11.35-11.53 11.35s-11.53-5.09-11.53-11.35 5.17-11.35 11.53-11.35 11.53 5.09 11.53 11.35z"/><path id="AD" d="m333.45 30.77c0 6.26-5.16 11.35-11.53 11.35-6.36 0-11.53-5.09-11.53-11.35s5.17-11.35 11.53-11.35c6.37 0 11.53 5.09 11.53 11.35z"/><path id="AE" d="m394.52 30.77c0 6.26-5.17 11.35-11.53 11.35s-11.53-5.09-11.53-11.35 5.17-11.35 11.53-11.35 11.53 5.09 11.53 11.35z"/><path id="AF" d="m461.57 30.77c0 6.26-5.17 11.35-11.53 11.35s-11.53-5.09-11.53-11.35 5.17-11.35 11.53-11.35 11.53 5.09 11.53 11.35z"/><path id="AG" d="m503.54 30.77c0 6.26-5.17 11.35-11.53 11.35s-11.53-5.09-11.53-11.35 5.17-11.35 11.53-11.35 11.53 5.09 11.53 11.35z"/></defs><use fill="#ff754b" xlink:href="#A"/><use fill="#c80000" xlink:href="#B"/><use fill="#ff4517" xlink:href="#C"/><use fill="#f96042" xlink:href="#D"/><use fill="#960000" xlink:href="#E"/><use fill="#f52000" xlink:href="#F"/><g fill="#ffb119"><use xlink:href="#G"/><use xlink:href="#H"/><use xlink:href="#I"/><use xlink:href="#J"/><use xlink:href="#K"/><use xlink:href="#L"/><use xlink:href="#M"/><use xlink:href="#N"/><use xlink:href="#O"/></g><use fill="#f96042" xlink:href="#P"/><use fill="#f52000" xlink:href="#Q"/><use fill="#960000" xlink:href="#R"/><use fill="#ffb119" xlink:href="#S"/><g fill="#fff65b"><use xlink:href="#T"/><use xlink:href="#U"/><use xlink:href="#V"/><use xlink:href="#W"/><use xlink:href="#X"/></g><g fill="#ff7200"><use xlink:href="#Y"/><use xlink:href="#Z"/><use xlink:href="#a"/><use xlink:href="#b"/><use xlink:href="#c"/></g><g fill="#fff65b"><use xlink:href="#d"/><use xlink:href="#e"/><use xlink:href="#f"/><use xlink:href="#g"/><use xlink:href="#h"/></g><g fill="#ff7200"><use xlink:href="#i"/><use xlink:href="#j"/><use xlink:href="#k"/><use xlink:href="#l"/><use xlink:href="#m"/></g><use fill="#f96042" xlink:href="#n"/><use fill="#960000" xlink:href="#o"/><use fill="#fff65b" xlink:href="#p"/><use fill="#ff7200" xlink:href="#q"/><g fill="#ffb119"><use xlink:href="#r"/><use xlink:href="#s"/></g><g fill="#fff65b"><use xlink:href="#t"/><use xlink:href="#u"/></g><g fill="#ffb119"><use xlink:href="#v"/><use xlink:href="#w"/><use xlink:href="#x"/></g><g fill="#ff7200"><use xlink:href="#y"/><use xlink:href="#z"/></g><g fill="#fff65b"><use xlink:href="#AA"/><use xlink:href="#AB"/></g><g fill="#ffb119"><use xlink:href="#AC"/><use xlink:href="#AD"/><use xlink:href="#AE"/></g><g fill="#ff7200"><use xlink:href="#AF"/><use xlink:href="#AG"/></g></svg>