<?xml version="1.0" encoding="iso-8859-1"?>
<!-- Generator: Adobe Illustrator 19.0.0, SVG Export Plug-In . SVG Version: 6.00 Build 0)  -->
<svg version="1.1" id="Layer_1" xmlns="http://www.w3.org/2000/svg" xmlns:xlink="http://www.w3.org/1999/xlink" x="0px" y="0px"
	 viewBox="0 0 512 512" style="enable-background:new 0 0 512 512;" xml:space="preserve">
<polygon style="fill:#FF832F;" points="339.478,512 306.087,512 306.087,422.957 339.478,434.087 "/>
<g>
	<rect x="239.304" y="422.957" style="fill:#FFB833;" width="33.391" height="89.043"/>
	<polygon style="fill:#FFB833;" points="205.913,512 172.522,512 172.522,434.087 205.913,422.957 	"/>
	<polygon style="fill:#FFB833;" points="172.522,0 172.522,66.783 267.13,89.043 256,0 	"/>
</g>
<polygon style="fill:#FF832F;" points="339.478,0 256,0 256,89.043 339.478,66.783 "/>
<polygon style="fill:#FFB833;" points="172.522,367.304 172.522,434.087 256,434.087 267.13,345.043 "/>
<polygon style="fill:#FF832F;" points="339.478,367.304 256,345.043 256,434.087 339.478,434.087 "/>
<path style="fill:#FF4851;" d="M172.522,66.783c-68.968,26.111-116.87,83.57-116.87,150.261c0,66.692,47.902,124.15,116.87,150.261
	h41.739V66.783H172.522z"/>
<g>
	<path style="fill:#FF1A26;" d="M256,66.783h-41.739c-34.484,26.111-58.435,83.568-58.435,150.261s23.95,124.15,58.435,150.261H256
		l22.261-150.261L256,66.783z"/>
	<path style="fill:#FF1A26;" d="M339.478,66.783h-41.739v300.522h41.739c68.968-26.111,116.87-83.568,116.87-150.261
		C456.348,150.352,408.446,92.893,339.478,66.783z"/>
</g>
<path style="fill:#C0141C;" d="M356.174,217.043c0-66.692-23.95-124.15-58.435-150.261H256c0,26.111,0,83.568,0,150.261
	s0,124.15,0,150.261h41.739C332.223,341.193,356.174,283.736,356.174,217.043z"/>
<g>
</g>
<g>
</g>
<g>
</g>
<g>
</g>
<g>
</g>
<g>
</g>
<g>
</g>
<g>
</g>
<g>
</g>
<g>
</g>
<g>
</g>
<g>
</g>
<g>
</g>
<g>
</g>
<g>
</g>
</svg>
